<svg 
 xmlns="http://www.w3.org/2000/svg"
 xmlns:xlink="http://www.w3.org/1999/xlink"
 width="1495px" height="1036px">
<path fill-rule="evenodd"  fill="rgb(255, 255, 255)"
 d="M315.1000,2.1000 C381.993,3.333 448.007,3.667 514.000,3.1000 C566.022,11.033 616.962,6.379 667.1000,15.1000 C695.664,20.666 723.336,25.334 751.000,29.1000 C843.576,12.420 968.320,-2.785 1072.1000,3.1000 C1104.997,3.1000 1137.003,3.1000 1168.1000,3.1000 C1193.664,4.333 1218.336,4.667 1243.000,4.1000 C1312.490,16.432 1469.809,0.350 1492.000,66.1000 C1501.428,95.316 1478.818,104.659 1473.1000,121.1000 C1461.448,167.178 1466.140,219.095 1452.1000,264.1000 C1447.667,309.329 1442.333,353.671 1436.1000,398.000 C1417.610,503.867 1413.557,617.414 1389.1000,728.000 C1376.942,789.301 1385.273,892.594 1343.000,923.000 C1295.252,957.344 1205.529,973.622 1125.1000,974.000 C1091.305,974.165 1058.279,973.650 1029.000,967.000 C1018.334,964.667 1007.666,962.333 996.1000,960.000 C989.899,963.236 983.206,978.030 976.000,983.000 C959.002,990.999 941.998,999.001 924.1000,1007.000 C830.814,1049.377 661.431,1040.052 570.000,1007.000 C538.969,995.782 512.389,984.743 495.1000,958.1000 C471.493,961.785 444.657,968.433 418.000,973.000 C341.705,986.073 176.246,953.566 142.000,915.1000 C110.907,881.893 117.002,809.022 107.000,756.000 C98.001,694.006 88.999,631.994 80.000,570.000 C78.000,549.335 75.1000,528.665 74.000,507.1000 C63.829,459.050 58.254,409.015 52.1000,358.1000 C43.001,287.340 32.999,215.659 23.000,143.1000 C21.334,134.668 19.666,125.332 17.1000,115.1000 C10.381,101.569 -8.824,82.598 5.1000,57.1000 C39.091,3.092 186.537,13.443 258.000,4.1000 C277.331,4.333 296.669,3.667 315.1000,2.1000 Z"/>
</svg>